<?xml version="1.0" encoding="UTF-8"?>
<svg width="186.68" height="186.68" version="1.1" viewBox="0 0 186.68 186.68" xmlns="http://www.w3.org/2000/svg">
 <path d="m48.105 59.3 11.64 7c3.45 2.08 3.47 2.08 2.07 6q-9.55 26.45-19.13 52.91c-1 2.81-1 2.81 2.06 2.81h64.08c1.89 0 2.69-0.55 3.28-2.31 1.73-5.14 3.67-10.21 5.52-15.3a4.07 4.07 0 0 0 0.48-2.15h-29.61c1.3-3.56 2.52-6.89 3.75-10.22 2.21-6 4.44-12.07 6.63-18.11 0.34-1 0.7-1.53 1.91-1.53q33.67 0.07 67.35 0.06a3.24 3.24 0 0 1 0.65 0.19q-2.25 6.23-4.5 12.42c-4.62 12.68-9.06 25.43-13.91 38-5.91 15.35-23 29-41.77 28.88-28.74-0.17-57.48 0-86.22-0.06-5.75 0-11.34-0.78-15.9-4.79-6.3-5.55-7.53-12.65-5.73-20.38 1.8-7.73 5.18-15.27 7.9-22.85 6-16.79 12-33.6 18.36-50.27 6.27-16.39 18.2-26.61 35.51-30.26a35.08 35.08 0 0 1 7.22-0.54q57.45-0.06 114.89-0.07c2.09 0 2.44 0.38 1.67 2.4q-4.79 12.48-9.23 25.08c-0.66 1.86-1.51 2.56-3.61 2.55q-61.17-0.1-122.34 0h-2.78z" fill="#e919df"/>
</svg>
