<?xml version="1.0" encoding="UTF-8"?>
<svg width="395.61" height="68.613" version="1.1" viewBox="0 0 395.61 68.613" xmlns="http://www.w3.org/2000/svg">
 <g fill="#e919df">
  <path d="m25.477 16.268q3.08 1.88 6.16 3.74c1.83 1.1 1.84 1.1 1.1 3.15l-10.14 28c-0.53 1.48-0.54 1.48 1.09 1.48h33.95a1.53 1.53 0 0 0 1.74-1.22c0.92-2.73 1.94-5.41 2.93-8.11a2.26 2.26 0 0 0 0.25-1.14h-15.69c0.69-1.89 1.34-3.65 2-5.42 1.17-3.19 2.35-6.39 3.51-9.59 0.18-0.5 0.37-0.81 1-0.81q17.85 0 35.68 0a2 2 0 0 1 0.35 0.11c-0.8 2.19-1.59 4.39-2.39 6.58-2.45 6.79-4.75 13.55-7.37 20.22-3.13 8.13-12.16 15.33-22.12 15.33-15.23-0.08-30.45 0-45.68 0-3.05 0-6-0.41-8.42-2.54-3.34-2.93-4-6.7-3-10.79s2.75-8.09 4.19-12.11c3.15-8.96 6.32-17.87 9.65-26.7 3.33-8.83 9.64-14.11 18.8-16a18.65 18.65 0 0 1 3.81-0.28q30.43 0 60.86 0c1.11 0 1.29 0.2 0.88 1.27q-2.51 6.62-4.86 13.3a1.71 1.71 0 0 1-1.92 1.35q-32.4-0.06-64.8 0h-1.44z"/>
  <path d="m326.75 16.138c0.16 0.43 0.59 0.52 0.92 0.72 2.07 1.27 4.13 2.54 6.23 3.76 0.63 0.36 0.73 0.69 0.47 1.37-1.92 5.23-3.8 10.47-5.7 15.71q-5.4 14.8-10.69 29.61a1.55 1.55 0 0 1-1.71 1.28c-6.21-0.06-12.42 0-18.63 0-0.72 0-1.18 0-0.81-1 6.39-17.39 12.67-34.82 19.13-52.19 3-8 12.1-15.35 22.13-15.29 15.22 0.09 30.44 0 45.67 0 2.92 0 5.78 0.37 8.14 2.31 3.61 2.95 4.31 6.86 3.28 11.15-1 4.12-2.72 8-4.16 12-5 13.94-10.14 27.85-15.17 41.78a1.54 1.54 0 0 1-1.79 1.24q-9.27-0.06-18.52 0c-1.1 0-1.18-0.26-0.82-1.21 1.7-4.49 3.32-9 5-13.52 0.32-0.87 0.17-1.1-0.78-1.1-3.21 0-6.42 0.13-9.62-0.12a11.8 11.8 0 0 1-10.18-14.55c0.25-0.91 0.67-1.11 1.54-1.11h23.94a1.45 1.45 0 0 0 1.65-1.11q3.33-9.35 6.78-18.63c0.32-0.89 0.39-1.29-0.81-1.29q-22.34 0-44.69 0c-0.28 0.03-0.55-0.08-0.8 0.19z"/>
  <path d="m128.59 68.528h-23.58a14 14 0 0 1-6.94-1.39 9.31 9.31 0 0 1-5-7.62 16.66 16.66 0 0 1 1.2-7.49q9.31-25.44 18.56-50.9a1.3 1.3 0 0 1 1.47-1q9.31 0.06 18.64 0c1 0 1.25 0.2 0.87 1.22q-9.1 24.89-18.15 49.79c-0.57 1.57-0.58 1.57 1.13 1.57h33.57a1.77 1.77 0 0 0 2-1.38c6-16.68 12.17-33.35 18.23-50a1.49 1.49 0 0 1 1.68-1.25h18.39c1 0 1.39 0.1 1 1.26-6.23 17-12.3 34.09-18.66 51.06-3.22 8.57-9.6 13.85-18.61 15.79a19.54 19.54 0 0 1-4.05 0.32c-7.27 0.08-14.51 0.02-21.75 0.02z"/>
  <path d="m270.02 16.358 3.54 2.16c1.13 0.68 2.25 1.37 3.4 2a1 1 0 0 1 0.56 1.49q-6.71 18.39-13.37 36.8c-1.05 2.89-2.14 5.77-3.14 8.68a1.37 1.37 0 0 1-1.53 1.1q-9.31 0-18.64 0c-1.11 0-1.24-0.34-0.88-1.31q9.17-25.1 18.32-50.19c0.38-1 0-1.09-0.83-1.09q-11.55 0-23.09 0c-2 0-2 0-1.33-1.83 1.58-4.32 3.19-8.63 4.71-13a1.53 1.53 0 0 1 1.72-1.15h70.81c1.4 0 1.5 0.14 1 1.39-1.62 4.43-3.27 8.86-4.86 13.3a1.62 1.62 0 0 1-1.78 1.27h-33.45c-0.29 0.01-0.73-0.16-1.16 0.38z"/>
  <path d="m228.05 0.077917c-1.09 3-2.13 5.94-3.2 8.86q-10.65 29.22-21.27 58.43a1.52 1.52 0 0 1-1.74 1.22h-18.26c-1.46 0-1.47 0-1-1.35q11.58-31.95 23.18-63.89c1.17-3.23 1.16-3.23 4.63-3.23z"/>
 </g>
</svg>
